<svg width="80" height="80" viewBox="0 0 80 80" fill="none" xmlns="http://www.w3.org/2000/svg">
<circle cx="40" cy="40" r="40" fill="#D4F4FF"/>
<path d="M56.0816 28.9818C53.951 28.9818 52.1633 31.4045 52.1633 34.5458C52.1633 36.7715 53.0857 38.7305 54.4571 39.6115V54.8431C54.4571 62.2155 50.2857 68.1389 45.0939 68.1389C40.2939 68.1389 36.3755 63.0849 35.8041 56.5007C42.6612 55.33 47.902 47.7373 47.902 38.4059V27.2894C47.902 22.4556 45.1755 18.5839 41.7714 18.5839H41.3306C41.2245 17.5638 40.9224 16.0801 39.6408 16.0801C38.351 16.0801 37.9347 17.7029 37.9347 18.8389V23.2786C37.9347 24.4146 38.3592 26.0374 39.6408 26.0374C40.9143 26.0374 41.2408 24.5305 41.3388 23.4061H41.7714C43.3061 23.4061 44.5796 25.2144 44.5796 27.3937V38.6378C44.5796 46.0102 39.8122 52.0495 33.9429 52.0495C28.0735 52.0495 23.3224 46.0217 23.3224 38.6493V27.5212C23.3224 25.3419 24.5959 23.5336 26.1306 23.5336H26.7429C26.849 24.5537 27.1673 26.0374 28.4327 26.0374C29.7633 26.0374 30.049 24.5189 30.1388 23.3829V18.8389C30.1388 17.7029 29.7551 16.0801 28.4327 16.0801C27.1429 16.0801 26.7918 17.6334 26.7347 18.7114H26.1306C22.7265 18.6998 20 22.5715 20 27.4053V38.5218C20 47.8648 25.3959 55.5386 32.4 56.5355C33.0041 65.6583 38.449 72.8452 45.0204 72.8452C52 72.8452 57.698 64.7425 57.8694 54.7156V39.4608C59.1265 38.5218 60 36.644 60 34.5343C60 31.5088 58.2939 28.9818 56.0816 28.9818ZM56.0816 35.2645C55.7388 35.2645 55.4857 34.9052 55.4857 34.4183C55.4857 33.9315 55.7388 33.5721 56.0816 33.5721C56.4245 33.5721 56.6775 34.059 56.6775 34.4183C56.6775 34.8936 56.4245 35.2645 56.0816 35.2645Z" fill="black"/>
</svg>
